Fly_normalized_Motion_pl05
version=1
nRows=14
nColumns=43
inDegrees=yes
endheader
time		pelvis_tilt		pelvis_list		pelvis_rotation		pelvis_tx		pelvis_ty		pelvis_tz		hip_flexion_r		hip_adduction_r		hip_rotation_r		knee_angle_r		ankle_angle_r		subtalar_angle_r		mtp_angle_r		hip_flexion_l		hip_adduction_l		hip_rotation_l		knee_angle_l		ankle_angle_l		subtalar_angle_l		mtp_angle_l		lumbar_extension		lumbar_bending		lumbar_rotation		neck_flexion		neck_lateral_bending		neck_rotation		arm_flex_r		arm_add_r		arm_rot_r		elbow_flex_r		pro_sup_r		wrist_flex_r		wrist_dev_r		hand_finger_flex_r		arm_flex_l		arm_add_l		arm_rot_l		elbow_flex_l		pro_sup_l		wrist_flex_l		wrist_dev_l		hand_finger_flex_l		
0.825000		4.537948		-11.816257		99.112400		0.007132		1.477116		0.922622		55.300763		-7.389151		-11.955776		-29.826310		-23.054504		-2.662197		9.482078		57.579606		-3.428761		3.895366		-34.092731		-15.699915		-7.573911		-2.264627		-32.151465		10.133248		1.105338		11.894937		-0.657654		1.651761		-16.455953		-25.476502		-24.611305		81.815779		84.652123		-25.992015		-5.417456		45.331707		-38.937408		-48.151019		-31.201632		81.842981		114.775308		-39.279968		5.781788		84.803941		
0.829015		4.523827		-11.589510		98.923414		0.006589		1.465881		0.911714		54.472030		-7.219083		-12.042228		-28.938117		-23.412771		-2.731970		9.675033		56.668343		-3.666757		3.546256		-32.875501		-16.519289		-7.802256		-2.257033		-31.538069		10.083254		1.248533		10.784679		-0.623474		1.491008		-19.620657		-25.046587		-25.530097		81.208128		84.453269		-25.850433		-6.052285		45.123828		-41.555044		-46.918344		-32.753831		79.659907		114.873207		-39.108524		5.156832		84.530334		
0.833030		4.526856		-11.325036		98.729492		0.006227		1.454482		0.900678		53.648394		-7.051882		-12.244315		-28.179753		-23.778960		-2.805814		9.791248		55.803656		-3.955860		3.155908		-31.822864		-17.391246		-7.889562		-2.315157		-30.913794		10.051525		1.400249		9.475300		-0.655600		1.310525		-22.718648		-24.402538		-26.554994		80.621819		84.376419		-25.813875		-6.584424		45.048016		-44.005591		-45.714389		-34.211080		77.358709		114.858177		-39.001961		4.739732		84.378535		
0.837045		4.527764		-11.132981		98.602903		0.005611		1.442736		0.889696		52.878827		-6.954491		-12.403474		-27.392871		-24.044120		-2.906188		9.887440		54.948327		-4.151881		2.823172		-30.672279		-17.967224		-7.957228		-2.355018		-30.222876		10.045821		1.544099		8.376515		-0.643397		1.221995		-25.923147		-23.809117		-27.554913		80.080623		84.359156		-25.816005		-7.040120		45.016736		-46.344234		-44.538281		-35.620268		75.129007		114.755972		-38.928605		4.436298		84.276064		
0.841061		4.515420		-10.904179		98.401658		0.005286		1.431049		0.878506		52.072964		-6.804812		-12.615145		-26.602617		-24.517701		-3.147631		10.073347		54.045292		-4.435961		2.345930		-29.541543		-18.795939		-8.097895		-2.401822		-29.484774		9.987285		1.602525		6.836264		-0.652600		1.069951		-28.837574		-23.164306		-28.385096		79.221017		84.572484		-25.546982		-7.918238		44.928928		-48.646018		-43.362420		-37.060253		72.611170		114.421967		-38.629494		3.543451		84.083211		
0.845076		4.511562		-10.737515		98.259470		0.004601		1.418880		0.867497		51.368049		-6.732854		-12.814141		-25.892367		-24.767695		-3.305808		10.215600		53.218127		-4.623162		2.002421		-28.437070		-19.234332		-8.144714		-2.419287		-28.753564		9.977336		1.692926		5.762300		-0.597803		1.004071		-31.909829		-22.466471		-29.382344		78.652798		84.686468		-25.509628		-8.449923		44.860987		-50.880119		-42.162130		-38.497888		70.291465		114.040505		-38.535455		3.135816		83.965849		
0.849091		4.534205		-10.492424		98.100703		0.004328		1.406873		0.856163		50.546396		-6.609209		-13.165692		-25.152190		-25.181703		-3.495627		10.333481		52.304804		-4.921950		1.465623		-27.334817		-19.870234		-8.188636		-2.464572		-27.962329		9.972299		1.730180		3.970401		-0.669679		0.855091		-34.726703		-21.739974		-30.181342		77.768111		85.040922		-25.420789		-9.086359		44.740759		-52.992656		-41.033325		-39.887422		67.753345		113.390605		-38.480944		2.697972		83.826464		
0.853106		4.552042		-10.288107		97.957850		0.003870		1.394585		0.844883		49.778929		-6.519885		-13.487356		-24.434086		-25.493928		-3.684313		10.423296		51.413484		-5.168168		0.992994		-26.217942		-20.310131		-8.258029		-2.491661		-27.157001		9.976936		1.751500		2.400352		-0.692345		0.746628		-37.569754		-21.005267		-31.028649		76.977672		85.421639		-25.395004		-9.671070		44.586273		-55.085266		-39.866799		-41.298162		65.288754		112.648283		-38.527426		2.359206		83.696237		
0.857121		4.572323		-10.083468		97.821123		0.003407		1.382140		0.833532		49.012508		-6.436188		-13.830056		-23.720677		-25.759831		-3.853453		10.473859		50.508180		-5.407344		0.504897		-25.097371		-20.682756		-8.347140		-2.516627		-26.328460		9.990083		1.744565		0.773097		-0.720432		0.642012		-40.355432		-20.260006		-31.835811		76.170297		85.828639		-25.420235		-10.198695		44.383876		-57.129750		-38.689709		-42.747568		62.843667		111.863479		-38.650158		2.122723		83.560649		
0.861136		4.611103		-9.893804		97.730308		0.002834		1.369508		0.822138		48.249641		-6.374927		-14.164316		-23.007352		-25.937499		-3.984800		10.478670		49.598673		-5.616993		0.014944		-23.946517		-20.949941		-8.451769		-2.542913		-25.472222		10.030087		1.762030		-0.808145		-0.737984		0.551706		-43.167367		-19.481671		-32.645311		75.398862		86.147799		-25.539691		-10.592898		44.203577		-59.066455		-37.484718		-44.319599		60.519031		111.200103		-38.859809		2.077454		83.430854		
0.865152		4.601078		-9.694018		97.561919		0.002554		1.356866		0.810577		47.462991		-6.279494		-14.520747		-22.245699		-26.153015		-4.129459		10.473775		48.655038		-5.857496		-0.516075		-22.810037		-21.282766		-8.601015		-2.559933		-24.583813		9.985655		1.609994		-2.704730		-0.788490		0.447715		-45.753356		-18.797543		-33.281359		74.492385		86.730001		-25.598748		-11.173886		43.842125		-61.141292		-36.279310		-45.791945		58.029695		110.400115		-39.001884		1.834144		83.236218		
0.869167		4.622758		-9.525986		97.477662		0.002029		1.343948		0.799072		46.700881		-6.220449		-14.809533		-21.492630		-26.232076		-4.223430		10.456284		47.739463		-6.037222		-1.015431		-21.645332		-21.457470		-8.748995		-2.568662		-23.677470		9.997538		1.562603		-4.365294		-0.792610		0.372668		-48.471493		-18.014140		-34.015345		73.704639		87.069461		-25.741426		-11.525862		43.561641		-63.027034		-35.070869		-47.470927		55.769306		109.841971		-39.253894		1.801208		83.045847		
0.873182		4.602571		-9.357943		97.334835		0.001624		1.330977		0.787455		45.916673		-6.145043		-15.089669		-20.685438		-26.306201		-4.281903		10.430771		46.807656		-6.218472		-1.525587		-20.498003		-21.648879		-8.903455		-2.570092		-22.748859		9.946981		1.409376		-6.210358		-0.814028		0.286347		-51.057152		-17.310742		-34.642396		72.869769		87.494482		-25.874852		-11.929161		43.199494		-64.996482		-33.847829		-49.080340		53.466635		109.414739		-39.463875		1.721155		82.816495		
0.877197		4.534911		-9.198510		97.149796		0.001305		1.317916		0.775756		45.137594		-6.078456		-15.324704		-19.868149		-26.360911		-4.283732		10.404622		45.874892		-6.379073		-2.052349		-19.392747		-21.841277		-9.051488		-2.549756		-21.805769		9.821790		1.196886		-8.149851		-0.845958		0.224475		-53.546844		-16.652740		-35.212975		71.993668		88.003394		-25.989032		-12.379913		42.696076		-67.004414		-32.598189		-50.682424		51.183572		109.186938		-39.628756		1.552854		82.520199		
